<?xml version="1.0" standalone="no"?>
<!DOCTYPE svg PUBLIC "-//W3C//DTD SVG 20010904//EN"
 "http://www.w3.org/TR/2001/REC-SVG-20010904/DTD/svg10.dtd">
<svg version="1.0" xmlns="http://www.w3.org/2000/svg"
 width="32.000000pt" height="32.000000pt" viewBox="0 0 32.000000 32.000000"
 preserveAspectRatio="xMidYMid meet">

<g transform="translate(0.000000,32.000000) scale(0.100000,-0.100000)"
fill="#000000" stroke="none">
<path d="M122 274 c-25 -17 -29 -60 -8 -89 16 -23 71 -24 93 -3 23 24 19 69
-7 90 -27 22 -49 23 -78 2z m63 -17 c39 -29 -6 -89 -49 -65 -29 16 -14 78 19
78 6 0 19 -6 30 -13z"/>
<path d="M77 129 c-26 -15 -39 -56 -27 -80 10 -17 22 -19 110 -19 88 0 100 2
110 19 13 25 -2 66 -29 80 -25 14 -140 14 -164 0z m169 -34 c8 -13 13 -29 9
-35 -3 -6 -44 -10 -95 -10 -51 0 -92 4 -95 10 -4 6 1 22 9 35 15 23 23 25 86
25 63 0 71 -2 86 -25z"/>
</g>
</svg>
