<?xml version="1.0" standalone="no"?>
<!DOCTYPE svg PUBLIC "-//W3C//DTD SVG 20010904//EN"
 "http://www.w3.org/TR/2001/REC-SVG-20010904/DTD/svg10.dtd">
<svg version="1.0" xmlns="http://www.w3.org/2000/svg"
 width="32.000000pt" height="32.000000pt" viewBox="0 0 32.000000 32.000000"
 preserveAspectRatio="xMidYMid meet">

<g transform="translate(0.000000,32.000000) scale(0.100000,-0.100000)"
fill="#000000" stroke="none">
<path d="M34 296 c-16 -12 -20 -29 -22 -111 -4 -106 0 -136 24 -159 17 -18 79
-22 89 -6 4 6 -10 10 -34 10 -53 0 -61 16 -61 130 0 127 2 130 103 130 95 0
107 -7 107 -62 0 -21 5 -38 10 -38 19 0 11 79 -10 100 -17 17 -33 20 -103 20
-56 0 -90 -5 -103 -14z"/>
<path d="M60 230 c0 -6 32 -10 75 -10 43 0 75 4 75 10 0 6 -32 10 -75 10 -43
0 -75 -4 -75 -10z"/>
<path d="M196 121 c-44 -44 -57 -64 -54 -82 6 -45 39 -34 107 35 64 64 64 66
46 86 -10 11 -23 20 -29 20 -7 0 -38 -26 -70 -59z m88 32 c7 -7 -102 -123
-116 -123 -20 0 -4 29 44 77 54 54 60 58 72 46z"/>
<path d="M60 160 c0 -6 27 -10 60 -10 33 0 60 4 60 10 0 6 -27 10 -60 10 -33
0 -60 -4 -60 -10z"/>
<path d="M60 90 c0 -5 16 -10 35 -10 19 0 35 5 35 10 0 6 -16 10 -35 10 -19 0
-35 -4 -35 -10z"/>
</g>
</svg>
